Coordinates
version=1
nRows=9
nColumns=24
inDegrees=yes

Units are S.I. units (second, meters, Newtons, ...)
Angles are in degrees.

endheader
time	pelvis_tilt	pelvis_list	pelvis_rotation	pelvis_tx	pelvis_ty	pelvis_tz	hip_flexion_r	hip_adduction_r	hip_rotation_r	knee_angle_r	ankle_angle_r	subtalar_angle_r	mtp_angle_r	hip_flexion_l	hip_adduction_l	hip_rotation_l	knee_angle_l	ankle_angle_l	subtalar_angle_l	mtp_angle_l	lumbar_extension	lumbar_bending	lumbar_rotation
      5.58000000	    -12.68348040	      6.36077310	      4.24938468	     -0.27760614	     -0.04050784	      2.04246784	     13.21900433	    -12.01513319	    -12.66164413	    -55.87044543	    -27.01771413	      1.84629329	     35.20453515	     32.54639060	     13.68507877	     -1.58748788	    -23.93028569	     -3.70202996	     -8.11461976	     15.90786483	      9.41504637	     -7.41038316	     -1.30161312
      5.59000000	    -12.62981562	      6.51252933	      4.10943473	     -0.26457063	     -0.03838052	      2.04224216	     15.15228067	    -12.09679986	    -11.61365178	    -58.13632474	    -25.01567593	     -1.00653754	     30.76811896	     31.33264726	     13.67404095	     -2.12681901	    -23.39872564	     -3.27810274	     -7.81459733	     18.26545171	      9.32755523	     -7.51716172	     -1.53006930
      5.60000000	    -12.70759889	      6.54165619	      3.96186493	     -0.25173184	     -0.03621183	      2.04204286	     17.24272128	    -11.98757147	    -10.59901499	    -60.02393929	    -23.07373689	     -3.67274624	     26.94723461	     30.22482930	     13.54047872	     -2.58024740	    -22.78681562	     -2.87111737	     -7.40914467	     20.35997318	      9.38469187	     -7.49418601	     -1.74210994
      5.61000000	    -12.62235237	      6.57507298	      3.79414168	     -0.23896844	     -0.03371551	      2.04188795	     19.11170589	    -11.82970075	     -9.62600310	    -61.48555545	    -21.25508117	     -5.88925809	     23.67680977	     28.81923641	     13.43055072	     -2.84499763	    -21.99267527	     -2.36151418	     -6.93482557	     21.49483548	      9.26283731	     -7.45913084	     -1.94228607
      5.62000000	    -12.53360028	      6.60231232	      3.66226829	     -0.22625228	     -0.03119891	      2.04156433	     20.92275295	    -11.67437863	     -8.73836217	    -62.55897308	    -19.64125925	     -7.57108202	     21.45174839	     27.29550189	     13.41306901	     -2.73987624	    -21.04220889	     -1.79202798	     -6.64885601	     21.13898693	      9.13911689	     -7.40557803	     -2.16271028
      5.63000000	    -12.39967141	      6.66138975	      3.56599847	     -0.21352901	     -0.02874925	      2.04108918	     22.61146308	    -11.57901815	     -7.92841421	    -63.26769193	    -18.15604929	     -8.60369405	     20.74306019	     25.61898168	     13.51012435	     -2.32176523	    -19.93441227	     -1.25326462	     -6.62158901	     19.87981065	      8.96695945	     -7.38263688	     -2.38337616
      5.64000000	    -12.26805793	      6.57057559	      3.60441869	     -0.20073884	     -0.02634828	      2.04037063	     24.14176924	    -11.39186677	     -7.42423371	    -63.51612890	    -16.88715198	     -9.35268673	     20.98359526	     23.90858344	     13.54934991	     -1.61603833	    -18.81612423	     -0.64380506	     -6.73418417	     17.44539580	      8.80456157	     -7.22292491	     -2.80653699
      5.65000000	    -12.13386774	      6.42301326	      3.64845148	     -0.18801766	     -0.02415673	      2.03961504	     25.59281065	    -11.15161169	     -6.98352401	    -63.40832588	    -15.76919986	     -9.65346481	     22.76060879	     22.20936271	     13.52617450	     -0.83445196	    -17.69844721	     -0.08934083	     -6.91475098	     15.32730745	      8.62936537	     -7.00888012	     -3.16458877
      5.66000000	    -11.96329822	      6.17302483	      3.79021943	     -0.17529285	     -0.02205633	      2.03876125	     26.85254047	    -10.84850513	     -6.74867806	    -62.90548717	    -14.68705099	     -9.64284398	     25.20739133	     20.49184206	     13.40353522	     -0.03716621	    -16.59721433	      0.32754282	     -7.11706345	     13.79621834	      8.41049040	     -6.71609760	     -3.63105914
